# xmcd
#
# Track frame offsets:
#	150
#	24465
#	45293
#	60628
#	86433
#	103588
#	128955
#	151820
#	167903
#	185693
#
# Disc length: 2729 seconds
#
# Revision: 0
# Processed by: cddbd v1.5.2PL0 Copyright (c) Steve Scherf et al.
# Submitted via: EasyCDDAExtractor 16.0.9.1
#
DISCID=770aa70a
DTITLE=Various Artist - Dạ Vũ Mừng Xuân
DYEAR=1990
DGENRE=Pop
TTITLE0=Ngọc Lan - Xuân Yêu Thương [New Wave]
TTITLE1=Hương Lan - Cánh Thiệp Đầu Xuân [Bolero]
TTITLE2=Kim Anh - Xuân Họp Mặt [Bebop]
TTITLE3=Tuấn Vũ - Mùa Xuân Lá Khô [Rumba]
TTITLE4=Thanh Tuyền - Anh Cho Em Mùa Xuân [ChaCha]
TTITLE5=Tuấn Vũ - Đám Cưới Đầu Xuân [Bolero]
TTITLE6=Như Mai - Xuân Đã Về [Samba]
TTITLE7=Hương Lan - Tôi Đã Gặp Mùa Xuân [Slow Rock]
TTITLE8=Quốc Anh - Đầu Xuân Lính Chúc [ChaCha]
TTITLE9=Thuy Vi - Xuân Ca [Bebop]
EXTD=
EXTT0=
EXTT1=
EXTT2=
EXTT3=
EXTT4=
EXTT5=
EXTT6=
EXTT7=
EXTT8=
EXTT9=
PLAYORDER=
